# xmcd
#
# Track frame offsets:
#	150
#	16035
#	31809
#	47649
#	64049
#	77579
#	91984
#	109256
#	124711
#	141934
#	156900
#	183632
#	199656
#	214404
#	229259
#	246072
#	265126
#	284210
#	298571
#	315069
#	330635
#
# Disc length: 4574 seconds
#
# Revision: 0
# Processed by: cddbd v1.5.2PL0 Copyright (c) Steve Scherf et al.
# Submitted via: EasyCDDAExtractor 8.2.4.1
#
DISCID=2d11dc15
DTITLE=Luiz Cláudio e Giuliano
DYEAR=2007
DGENRE=Sertanejo
TTITLE0=Eu Sou Peão
TTITLE1=Olhe Prá Nós Dois
TTITLE2=Foi Covardia
TTITLE3=Vem Ficar Comigo
TTITLE4=Fala
TTITLE5=O Problema É Seu
TTITLE6=Dois Apaixonados
TTITLE7=Tá Mentindo
TTITLE8=Eu Quero Te Amar
TTITLE9=De Bar Em Bar
TTITLE10=Vem Ni Mim Paixão - Fuscão Preto
TTITLE11=Meu Segredo
TTITLE12=Amor Que Não Tem Fim
TTITLE13=Distante
TTITLE14=Pranto Escondido - Som de Cristal
TTITLE15=Porquê - Sorriso Mudo
TTITLE16=Só Mais Uma Vez - Se Deus Me Ouvisse
TTITLE17=Ah! Ah! Oh! Oh!
TTITLE18=Daniela
TTITLE19=Comitiva do Amor
TTITLE20=P.Q.P.
EXTD=
EXTT0=
EXTT1=
EXTT2=
EXTT3=
EXTT4=
EXTT5=
EXTT6=
EXTT7=
EXTT8=
EXTT9=
EXTT10=
EXTT11=
EXTT12=
EXTT13=
EXTT14=
EXTT15=
EXTT16=
EXTT17=
EXTT18=
EXTT19=
EXTT20=
PLAYORDER=
